<?xml version="1.0" encoding="utf-8"?>
<!-- Generator: Adobe Illustrator 25.4.1, SVG Export Plug-In . SVG Version: 6.00 Build 0)  -->
<svg version="1.1" id="Layer_1" xmlns="http://www.w3.org/2000/svg" xmlns:xlink="http://www.w3.org/1999/xlink" x="0px" y="0px"
	 viewBox="0 0 24 24" style="enable-background:new 0 0 24 24;" xml:space="preserve">
<g>
	<path d="M15.1,17.85c-0.13-0.25-0.38-0.41-0.67-0.41c-0.11,0-0.23,0.03-0.33,0.08l-1.36,0.68v-1.64c0-0.41-0.33-0.74-0.74-0.74
		c-0.41,0-0.74,0.33-0.74,0.74v1.64L9.9,17.52c-0.1-0.05-0.22-0.08-0.33-0.08c-0.28,0-0.54,0.16-0.67,0.41
		c-0.18,0.37-0.03,0.81,0.33,1l2.42,1.21c0.11,0.06,0.23,0.09,0.35,0.09c0.12,0,0.24-0.03,0.34-0.08l2.43-1.21
		C15.13,18.67,15.28,18.22,15.1,17.85z"/>
	<path d="M12,14.47c0.41,0,0.74-0.33,0.74-0.74v-1.97l2.02-1.01c0.18-0.09,0.31-0.24,0.37-0.43c0.06-0.19,0.05-0.39-0.04-0.57
		c-0.13-0.25-0.38-0.41-0.67-0.41c-0.11,0-0.23,0.03-0.33,0.08L12,10.46L9.9,9.41C9.8,9.36,9.68,9.33,9.57,9.33
		c-0.28,0-0.54,0.16-0.67,0.41c-0.09,0.18-0.1,0.38-0.04,0.57c0.06,0.19,0.2,0.34,0.37,0.43l2.02,1.01v1.97
		C11.26,14.13,11.59,14.47,12,14.47z"/>
	<path d="M8.28,8.6l-1.1-0.55l1.1-0.55c0.37-0.18,0.52-0.63,0.33-1C8.48,6.24,8.23,6.08,7.94,6.08c-0.11,0-0.23,0.03-0.33,0.08
		L5.19,7.38c-0.07,0.04-0.14,0.08-0.2,0.14C4.92,7.58,4.87,7.65,4.83,7.73c-0.05,0.1-0.07,0.21-0.07,0.32v2.83
		c0,0.41,0.33,0.74,0.74,0.74c0.41,0,0.74-0.33,0.74-0.74V9.25l1.36,0.68c0.1,0.05,0.22,0.08,0.33,0.08c0.28,0,0.54-0.16,0.67-0.41
		C8.79,9.23,8.64,8.78,8.28,8.6z"/>
	<path d="M5.51,12.57c-0.41,0-0.74,0.33-0.74,0.74v2.82c0,0.09,0.01,0.19,0.05,0.28c0.01,0.02,0.01,0.03,0.03,0.07
		c0.07,0.15,0.19,0.26,0.34,0.33l2.43,1.21c0.1,0.05,0.22,0.08,0.33,0.08c0.28,0,0.54-0.16,0.67-0.41c0.18-0.37,0.03-0.81-0.33-1
		l-1.1-0.55l1.1-0.55c0.37-0.18,0.52-0.63,0.33-1c-0.13-0.25-0.38-0.41-0.67-0.41c-0.11,0-0.23,0.03-0.33,0.08l-1.36,0.68v-1.64
		C6.25,12.91,5.92,12.57,5.51,12.57z"/>
	<path d="M15.39,17.71c0.13,0.25,0.38,0.41,0.67,0.41c0.11,0,0.23-0.03,0.33-0.08l2.43-1.21c0.07-0.04,0.14-0.08,0.2-0.14
		c0.06-0.06,0.11-0.13,0.15-0.21c0.05-0.1,0.07-0.21,0.07-0.32v-2.83c0-0.41-0.33-0.74-0.74-0.74c-0.41,0-0.74,0.33-0.74,0.74v1.64
		l-1.36-0.68c-0.1-0.05-0.22-0.08-0.33-0.08c-0.28,0-0.54,0.16-0.67,0.41c-0.18,0.37-0.03,0.81,0.33,1l1.1,0.55l-1.1,0.55
		C15.36,16.89,15.21,17.34,15.39,17.71z"/>
	<path d="M15.39,9.59c0.13,0.25,0.38,0.41,0.67,0.41c0.11,0,0.23-0.03,0.33-0.08l1.36-0.68v1.64c0,0.41,0.33,0.74,0.74,0.74
		c0.41,0,0.74-0.33,0.74-0.74V8.06c0-0.1-0.01-0.19-0.05-0.28c-0.01-0.02-0.01-0.03-0.03-0.07c-0.07-0.15-0.19-0.26-0.34-0.33
		l-2.43-1.22c-0.1-0.05-0.22-0.08-0.33-0.08c-0.28,0-0.54,0.16-0.67,0.41c-0.18,0.37-0.03,0.81,0.33,1l1.1,0.55l-1.1,0.55
		C15.36,8.78,15.21,9.23,15.39,9.59z"/>
	<path d="M8.9,6.35C9.03,6.6,9.28,6.76,9.57,6.76c0.11,0,0.23-0.03,0.33-0.08L11.26,6v1.64c0,0.41,0.33,0.74,0.74,0.74
		c0.41,0,0.74-0.33,0.74-0.74V6l1.36,0.68c0.1,0.05,0.22,0.08,0.33,0.08c0.28,0,0.54-0.16,0.67-0.41c0.18-0.37,0.03-0.81-0.33-1
		l-2.42-1.21C12.24,4.09,12.12,4.06,12,4.06c-0.12,0-0.24,0.03-0.34,0.08L9.23,5.35C8.87,5.54,8.72,5.98,8.9,6.35z"/>
	<path d="M17.35,0h-2.14c-0.47,0-0.85,0.38-0.85,0.85s0.38,0.85,0.85,0.85h2.14c2.74,0,4.95,2.22,4.95,4.95v1.97
		c0,0.47,0.38,0.85,0.85,0.85c0.47,0,0.85-0.38,0.85-0.85V6.65C24,2.98,21.02,0,17.35,0z"/>
	<path d="M0.85,9.46c0.47,0,0.85-0.38,0.85-0.85V6.65c0-2.74,2.22-4.95,4.95-4.95h1.81c0.47,0,0.85-0.38,0.85-0.85S8.92,0,8.45,0
		H6.65C2.98,0,0,2.98,0,6.65v1.97C0,9.09,0.38,9.46,0.85,9.46z"/>
	<path d="M23.15,14.54c-0.47,0-0.85,0.38-0.85,0.85v1.97c0,2.74-2.22,4.95-4.95,4.95h-2.99V24h2.99c3.67,0,6.65-2.98,6.65-6.65
		v-1.97C24,14.91,23.62,14.54,23.15,14.54z"/>
	<path d="M1.69,17.35v-1.97c0-0.47-0.38-0.85-0.85-0.85S0,14.91,0,15.38v1.97C0,21.02,2.98,24,6.65,24H9.3v-1.69H6.65
		C3.91,22.31,1.69,20.09,1.69,17.35z"/>
</g>
</svg>
