<svg id="SvgjsSvg1021" width="288" height="288" xmlns="http://www.w3.org/2000/svg" version="1.1" xmlns:xlink="http://www.w3.org/1999/xlink" xmlns:svgjs="http://svgjs.com/svgjs"><defs id="SvgjsDefs1022"></defs><g id="SvgjsG1023"><svg xmlns="http://www.w3.org/2000/svg" overflow="hidden" viewBox="0 0 96 96" width="288" height="288"><path d="M87.8 8.4C86.4 7 77.4 8.6 69.9 10.6 72.6 12.2 75.4 14.4 78.1 17.1 80.9 19.9 83.1 22.7 84.7 25.5 86.7 17.8 89.3 9.8 87.8 8.4zM32.1 36.9L28.7 35.6C27.3 35.1 25.8 35.4 24.7 36.4L8.8 52.3C6.2 54.9 8.6 59.4 12.2 58.6L25.5 55.6C26.6 50.6 28.4 43.9 32.1 36.9zM58.6 63C51.9 66.5 45.5 68.4 40.3 69.4L37.2 83.6C36.4 87.2 40.8 89.7 43.5 87L59.4 71.1C60.4 70.1 60.8 68.5 60.2 67.1L58.6 63zM64.5 12.4C58.6 14.8 51.9 18.9 45.4 25.4 33.5 37.3 30 51.7 29 59.9L35.2 66.1C43.4 65.1 57.9 61.7 69.8 49.8 76.3 43.3 80.4 36.7 82.8 30.8 81.5 27.5 78.9 23.6 75.2 19.8 71.6 16.3 67.8 13.7 64.5 12.4zM69.6 34C67.3 36.3 63.5 36.3 61.1 34 58.8 31.7 58.8 27.9 61.1 25.5 63.4 23.2 67.2 23.2 69.6 25.5 71.9 27.9 71.9 31.7 69.6 34zM28.9 66.2C27.3 64.6 27.5 61.9 24.2 65.2 20.9 68.5 16 76 17.5 77.6 19.1 79.2 26.6 74.2 29.9 70.9 33.2 67.5 30.5 67.7 28.9 66.2z" fill="#ffffff" class="color000 svgShape"></path></svg></g></svg>