<svg version="1.1" viewBox="0 0 96 96" xmlns="http://www.w3.org/2000/svg" xmlns:xlink="http://www.w3.org/1999/xlink" id="Icons_Rocket" overflow="hidden">
    <path d=" M 87.8 8.4 C 86.4 7 77.4 8.6 69.9 10.6 C 72.6 12.2 75.4 14.4 78.1 17.1 C 80.9 19.9 83.1 22.7 84.7 25.5 C 86.7 17.8 89.3 9.8 87.8 8.4 Z"/>
    <path d=" M 32.1 36.9 L 28.7 35.6 C 27.3 35.1 25.8 35.4 24.7 36.4 L 8.8 52.3 C 6.2 54.9 8.6 59.4 12.2 58.6 L 25.5 55.6 C 26.6 50.6 28.4 43.9 32.1 36.9 Z"/>
    <path d=" M 58.6 63 C 51.9 66.5 45.5 68.4 40.3 69.4 L 37.2 83.6 C 36.4 87.2 40.8 89.7 43.5 87 L 59.4 71.1 C 60.4 70.1 60.8 68.5 60.2 67.1 L 58.6 63 Z"/>
    <path d=" M 64.5 12.4 C 58.6 14.8 51.9 18.9 45.4 25.4 C 33.5 37.3 30 51.7 29 59.9 L 35.2 66.1 C 43.4 65.1 57.9 61.7 69.8 49.8 C 76.3 43.3 80.4 36.7 82.8 30.8 C 81.5 27.5 78.9 23.6 75.2 19.8 C 71.6 16.3 67.8 13.7 64.5 12.4 Z M 69.6 34 C 67.3 36.3 63.5 36.3 61.1 34 C 58.8 31.7 58.8 27.9 61.1 25.5 C 63.4 23.2 67.2 23.2 69.6 25.5 C 71.9 27.9 71.9 31.7 69.6 34 Z"/>
    <path d=" M 28.9 66.2 C 27.3 64.6 27.5 61.9 24.2 65.2 C 20.9 68.5 16 76 17.5 77.6 C 19.1 79.2 26.6 74.2 29.9 70.9 C 33.2 67.5 30.5 67.7 28.9 66.2 Z"/>
</svg>