<?xml version="1.0" encoding="utf-8"?>
<!-- Generator: Adobe Illustrator 25.0.0, SVG Export Plug-In . SVG Version: 6.00 Build 0)  -->
<svg version="1.1" id="Layer_1" xmlns="http://www.w3.org/2000/svg" xmlns:xlink="http://www.w3.org/1999/xlink" x="0px" y="0px"
	 viewBox="0 0 423.82 275.94" style="enable-background:new 0 0 423.82 275.94;" xml:space="preserve">
<style type="text/css">
	.st0{fill-rule:evenodd;clip-rule:evenodd;fill:#005EA8;}
</style>
<path class="st0" d="M166.64,92.69c-7.5-3.75-17.68-6.97-27.86-6.97c-10.72,0-20.9,2.14-23.04,12.86
	c-1.61,10.18,7.5,16.07,22.5,24.11c24.65,13.93,26.79,29.47,23.58,44.47c-4.82,24.11-27.33,34.83-53.04,34.29
	c-24.65,0-41.26-8.57-41.26-8.57l5.36-23.04c5.89,3.21,20.9,10.18,36.44,10.18c14.47,0,20.36-5.36,21.97-13.4
	c2.14-10.18-2.68-17.15-16.61-24.65c-18.75-10.72-33.76-21.97-28.93-43.4c5.36-26.79,30.54-34.83,51.97-34.83
	c12.32,0,24.65,1.61,34.83,5.89L166.64,92.69L166.64,92.69z"/>
<polygon class="st0" points="170.39,198.78 200.39,198.78 228.25,66.98 198.25,66.98 170.39,198.78 "/>
<path class="st0" d="M337.02,92.69c-5.89-3.75-15.54-7.5-28.4-7.5c-27.33,0-41.79,19.82-47.15,44.47
	c-7.5,35.36,8.57,50.37,27.33,50.37c9.11,0,12.32-2.68,12.32-2.68l6.97-32.68h-20.9l4.29-20.9h49.83l-15,71.26
	c0,0-14.47,6.43-39.65,6.43c-39.65,0-64.3-30.54-55.72-72.87c9.11-41.79,39.65-64.83,78.23-64.83c10.72,0,24.65,1.61,33.22,5.89
	L337.02,92.69L337.02,92.69z"/>
<path class="st0" d="M423.82,138.24c0,76.08-94.84,137.7-212.18,137.7C94.84,275.94,0,214.32,0,138.24C0,61.62,94.84,0,211.64,0
	C328.99,0,423.82,61.62,423.82,138.24L423.82,138.24z M211.64,18.75c-107.16,0-193.96,53.58-193.96,119.48
	c0,65.9,86.8,118.95,193.96,118.95c107.7,0,194.5-53.04,194.5-118.95C406.14,72.33,319.34,18.75,211.64,18.75L211.64,18.75z"/>
</svg>
